<svg width="25" height="25" viewBox="0 0 25 25" fill="none" xmlns="http://www.w3.org/2000/svg">
<path d="M9.5 6.5H15.5C15.5 4.84315 14.1569 3.5 12.5 3.5C10.8431 3.5 9.5 4.84315 9.5 6.5ZM7.5 6.5C7.5 3.73858 9.73858 1.5 12.5 1.5C15.2614 1.5 17.5 3.73858 17.5 6.5H20.5C21.0523 6.5 21.5 6.94772 21.5 7.5V21.5C21.5 22.0523 21.0523 22.5 20.5 22.5H4.5C3.94772 22.5 3.5 22.0523 3.5 21.5V7.5C3.5 6.94772 3.94772 6.5 4.5 6.5H7.5ZM5.5 8.5V20.5H19.5V8.5H5.5ZM9.5 10.5C9.5 12.1569 10.8431 13.5 12.5 13.5C14.1569 13.5 15.5 12.1569 15.5 10.5H17.5C17.5 13.2614 15.2614 15.5 12.5 15.5C9.73858 15.5 7.5 13.2614 7.5 10.5H9.5Z" fill="#BDBDBD"/>
</svg>
