<svg width="72" height="73" viewBox="0 0 72 73" fill="none" xmlns="http://www.w3.org/2000/svg">
<path d="M41.8383 6.78233C38.4744 3.91565 33.5268 3.91568 30.1632 6.7823L26.1191 10.2286C25.6386 10.638 25.0411 10.8855 24.4118 10.9357L19.1154 11.3584C14.7098 11.7099 11.2114 15.2083 10.8598 19.6139L10.4372 24.9103C10.387 25.5396 10.1395 26.1372 9.73002 26.6177L6.28374 30.6617C3.41712 34.0256 3.41715 38.9729 6.2838 42.3365L9.73008 46.3808C10.1395 46.8614 10.387 47.4587 10.4372 48.0881L10.8599 53.3843C11.2115 57.7898 14.7099 61.2881 19.1155 61.6397L24.4119 62.0627C25.0411 62.1128 25.6384 62.3603 26.1189 62.7698L30.1629 66.2159C33.5268 69.0824 38.4744 69.0827 41.8383 66.2159L45.8823 62.7698C46.3626 62.3603 46.9599 62.1128 47.5893 62.0624L52.8858 61.6397C57.2913 61.2884 60.7896 57.7901 61.1415 53.3843L61.5639 48.0881C61.614 47.4587 61.8618 46.8611 62.271 46.3805L65.7174 42.3368C68.5842 38.9729 68.5842 34.0253 65.7174 30.6617L62.271 26.6175C61.8615 26.137 61.6143 25.5396 61.5642 24.9104L61.1415 19.6139C60.7899 15.2084 57.2913 11.7099 52.8858 11.3583L47.5893 10.9357C46.9599 10.8855 46.3626 10.638 45.8823 10.2286L41.8383 6.78233ZM44.4852 23.7715L48.7278 28.0142L27.5145 49.2275L23.2719 44.9846L44.4852 23.7715ZM30.6966 31.196C28.9391 32.9534 26.0899 32.9534 24.3325 31.196C22.5752 29.4389 22.5752 26.5896 24.3325 24.8322C26.0899 23.0748 28.9391 23.0748 30.6966 24.8322C32.454 26.5896 32.454 29.4389 30.6966 31.196ZM41.3031 48.1667C39.5457 46.4093 39.5457 43.5602 41.3031 41.8028C43.0605 40.0454 45.9096 40.0454 47.667 41.8028C49.4244 43.5602 49.4244 46.4093 47.667 48.1667C45.9096 49.9241 43.0605 49.9241 41.3031 48.1667Z" fill="white"/>
</svg>
