<svg width="630" height="73" viewBox="0 0 630 73" fill="none" xmlns="http://www.w3.org/2000/svg">
<path d="M108.112 60.64C106.192 60.64 104.251 60.3413 102.288 59.744C100.368 59.1467 98.5547 58.336 96.848 57.312C95.184 56.2453 93.7547 55.072 92.56 53.792L98.256 48.288C99.536 49.6107 101.072 50.6773 102.864 51.488C104.699 52.2987 106.405 52.704 107.984 52.704C109.989 52.704 111.675 52.128 113.04 50.976C114.448 49.7813 115.152 48.3733 115.152 46.752C115.152 45.4293 114.661 44.2987 113.68 43.36C112.699 42.3787 111.483 41.6747 110.032 41.248C106.235 40.224 102.992 39.136 100.304 37.984C97.6587 36.832 95.696 35.3173 94.416 33.44C93.136 31.5627 92.6667 29.0453 93.008 25.888C93.3067 23.4133 94.1173 21.3653 95.44 19.744C96.8053 18.08 98.512 16.8427 100.56 16.032C102.651 15.2213 104.955 14.816 107.472 14.816C109.733 14.816 112.101 15.1787 114.576 15.904C117.051 16.5867 119.504 17.7387 121.936 19.36L116.496 24.992C115.259 24.3093 113.915 23.7333 112.464 23.264C111.013 22.7947 109.52 22.5387 107.984 22.496C106.789 22.4533 105.637 22.5813 104.528 22.88C103.461 23.136 102.565 23.6053 101.84 24.288C101.115 24.928 100.731 25.8027 100.688 26.912C100.645 28.1493 100.965 29.1093 101.648 29.792C102.331 30.4747 103.269 31.0293 104.464 31.456C105.701 31.8827 107.131 32.352 108.752 32.864C111.739 33.6747 114.277 34.6133 116.368 35.68C118.459 36.704 120.059 38.0907 121.168 39.84C122.277 41.5467 122.832 43.8507 122.832 46.752C122.832 49.3547 122.171 51.7013 120.848 53.792C119.525 55.8827 117.755 57.5467 115.536 58.784C113.317 60.0213 110.843 60.64 108.112 60.64ZM125.358 59.936L139.182 15.2H148.846L162.734 59.936H154.542L151.342 49.12H136.75L133.55 59.936H125.358ZM144.046 24.8L138.798 42.464H149.294L144.046 24.8ZM188.914 60H167.858V15.2H175.538V52.448H188.914V60ZM218.158 60H194.03V15.2H218.158V22.368H201.71V34.848H215.022V41.312H201.71V52.832H218.158V60ZM278.81 47.84H272.026V60H267.034V47.84H246.298V43.04L263.642 15.136H272.026V43.104H278.81V47.84ZM267.034 43.104V20.96H265.498L251.61 43.104H267.034ZM316.563 53.472C314.984 55.5627 313 57.2267 310.611 58.464C308.221 59.7013 305.427 60.32 302.227 60.32C298.941 60.32 296.125 59.7013 293.779 58.464C291.432 57.2267 289.469 55.5627 287.891 53.472C286.355 51.3813 285.203 48.9707 284.435 46.24C283.667 43.5093 283.283 40.6293 283.283 37.6C283.283 34.5707 283.667 31.6907 284.435 28.96C285.203 26.1867 286.376 23.7547 287.955 21.664C289.491 19.616 291.453 17.9733 293.843 16.736C296.232 15.4987 299.027 14.88 302.227 14.88C305.427 14.88 308.221 15.52 310.611 16.8C313 18.0373 314.984 19.7013 316.563 21.792C318.141 23.8827 319.293 26.2933 320.019 29.024C320.787 31.7547 321.171 34.6133 321.171 37.6C321.171 40.6293 320.787 43.5093 320.019 46.24C319.251 48.928 318.099 51.3387 316.563 53.472ZM312.723 25.184C311.613 23.6053 310.184 22.368 308.435 21.472C306.685 20.576 304.616 20.128 302.227 20.128C299.795 20.128 297.704 20.576 295.955 21.472C294.205 22.368 292.776 23.6053 291.667 25.184C290.515 26.8053 289.683 28.6827 289.171 30.816C288.659 32.9493 288.403 35.2107 288.403 37.6C288.403 39.9893 288.659 42.2507 289.171 44.384C289.683 46.5173 290.493 48.3947 291.603 50.016C292.755 51.5947 294.205 52.8533 295.955 53.792C297.704 54.7307 299.795 55.2 302.227 55.2C304.616 55.2 306.685 54.7307 308.435 53.792C310.184 52.8533 311.613 51.5947 312.723 50.016C313.875 48.3947 314.707 46.5173 315.219 44.384C315.731 42.2507 315.987 39.9893 315.987 37.6C316.029 35.2107 315.773 32.9493 315.219 30.816C314.707 28.6827 313.875 26.8053 312.723 25.184ZM336.075 34.464C334.24 34.464 332.576 34.0373 331.083 33.184C329.589 32.288 328.416 31.1147 327.563 29.664C326.709 28.1707 326.283 26.5493 326.283 24.8C326.283 22.9653 326.709 21.3227 327.563 19.872C328.459 18.3787 329.632 17.2053 331.083 16.352C332.576 15.4987 334.24 15.072 336.075 15.072C337.867 15.072 339.488 15.4987 340.939 16.352C342.389 17.2053 343.541 18.3787 344.395 19.872C345.248 21.3227 345.675 22.9653 345.675 24.8C345.675 26.6773 345.227 28.3627 344.331 29.856C343.477 31.3067 342.304 32.4373 340.811 33.248C339.36 34.0587 337.781 34.464 336.075 34.464ZM337.291 60.064L357.067 15.136H362.315L342.475 60.064H337.291ZM336.075 30.048C337.568 30.048 338.805 29.536 339.787 28.512C340.768 27.4453 341.259 26.208 341.259 24.8C341.259 23.3493 340.747 22.112 339.723 21.088C338.699 20.064 337.483 19.552 336.075 19.552C334.539 19.552 333.259 20.064 332.235 21.088C331.253 22.0693 330.763 23.3067 330.763 24.8C330.763 26.2507 331.275 27.488 332.299 28.512C333.323 29.536 334.581 30.048 336.075 30.048ZM364.363 60.256C362.528 60.256 360.864 59.808 359.371 58.912C357.92 58.016 356.768 56.8427 355.915 55.392C355.061 53.8987 354.635 52.2987 354.635 50.592C354.635 48.7573 355.061 47.1147 355.915 45.664C356.768 44.1707 357.92 42.9973 359.371 42.144C360.864 41.2907 362.528 40.864 364.363 40.864C366.197 40.864 367.84 41.2907 369.291 42.144C370.741 42.9973 371.893 44.1707 372.747 45.664C373.6 47.1147 374.027 48.7573 374.027 50.592C374.027 52.4693 373.579 54.1333 372.683 55.584C371.787 57.0347 370.613 58.1867 369.163 59.04C367.712 59.8507 366.112 60.256 364.363 60.256ZM364.363 55.776C365.899 55.776 367.157 55.264 368.139 54.24C369.12 53.1733 369.611 51.9573 369.611 50.592C369.611 49.0987 369.099 47.84 368.075 46.816C367.051 45.792 365.813 45.28 364.363 45.28C362.827 45.28 361.547 45.792 360.523 46.816C359.541 47.7973 359.051 49.056 359.051 50.592C359.051 52 359.563 53.216 360.587 54.24C361.653 55.264 362.912 55.776 364.363 55.776ZM438.448 37.472C438.448 40.5867 437.872 43.5093 436.72 46.24C435.611 48.928 434.053 51.3173 432.048 53.408C430.043 55.456 427.717 57.0773 425.072 58.272C422.427 59.424 419.568 60 416.496 60H403.44V15.008H416.496C419.568 15.008 422.427 15.6053 425.072 16.8C427.76 17.952 430.107 19.5733 432.112 21.664C434.117 23.712 435.675 26.1013 436.784 28.832C437.893 31.52 438.448 34.4 438.448 37.472ZM433.264 37.472C433.264 34.2293 432.517 31.2853 431.024 28.64C429.573 25.9947 427.589 23.8827 425.072 22.304C422.555 20.7253 419.696 19.936 416.496 19.936H408.56V55.008H416.496C419.696 55.008 422.555 54.2187 425.072 52.64C427.589 51.0187 429.573 48.8853 431.024 46.24C432.517 43.552 433.264 40.6293 433.264 37.472ZM446.942 23.776C446.003 23.776 445.193 23.456 444.51 22.816C443.87 22.1333 443.55 21.3227 443.55 20.384C443.55 19.4453 443.87 18.656 444.51 18.016C445.193 17.3333 446.003 16.992 446.942 16.992C447.881 16.992 448.67 17.3333 449.31 18.016C449.993 18.656 450.334 19.4453 450.334 20.384C450.334 21.3227 449.993 22.1333 449.31 22.816C448.67 23.456 447.881 23.776 446.942 23.776ZM449.374 60H444.574V28H449.374V60ZM454.207 56.288L457.215 53.024C458.538 54.0053 459.861 54.7733 461.183 55.328C462.506 55.84 463.85 56.0747 465.215 56.032C466.026 56.032 466.794 55.9253 467.519 55.712C468.245 55.4987 468.927 55.136 469.567 54.624C470.378 54.0267 470.911 53.2587 471.167 52.32C471.466 51.3813 471.466 50.4853 471.167 49.632C470.826 48.6933 470.207 47.9467 469.311 47.392C468.415 46.8373 467.349 46.368 466.111 45.984C464.917 45.5573 463.658 45.1307 462.335 44.704C461.055 44.2347 459.861 43.6587 458.751 42.976C456.831 41.696 455.594 40.2453 455.039 38.624C454.485 36.96 454.485 35.3387 455.039 33.76C455.637 32.1387 456.682 30.7733 458.175 29.664C459.711 28.5547 461.61 27.9147 463.871 27.744C466.047 27.616 468.159 27.872 470.207 28.512C472.255 29.152 473.855 30.048 475.007 31.2L471.807 34.272C470.741 33.5467 469.589 33.0133 468.351 32.672C467.114 32.3307 465.919 32.16 464.767 32.16C463.402 32.2027 462.229 32.5227 461.247 33.12C460.309 33.7173 459.775 34.6773 459.647 36C459.562 37.2373 459.967 38.2187 460.863 38.944C461.759 39.6267 462.997 40.2453 464.575 40.8C466.154 41.312 467.861 41.9093 469.695 42.592C471.829 43.4453 473.471 44.6827 474.623 46.304C475.818 47.8827 476.181 49.9093 475.711 52.384C475.413 54.688 474.474 56.5013 472.895 57.824C471.359 59.1467 469.482 59.9787 467.263 60.32C465.045 60.6613 462.762 60.512 460.415 59.872C458.111 59.1893 456.042 57.9947 454.207 56.288ZM506.186 55.84C503.967 57.8453 501.642 59.1893 499.21 59.872C496.778 60.5547 494.41 60.6613 492.106 60.192C489.844 59.7653 487.775 58.8267 485.898 57.376C484.063 55.8827 482.591 54.0053 481.482 51.744C480.372 49.44 479.818 46.7947 479.818 43.808C479.818 40.8213 480.351 38.2187 481.418 36C482.527 33.7387 483.999 31.9253 485.834 30.56C487.711 29.1947 489.802 28.32 492.106 27.936C494.41 27.552 496.778 27.7227 499.21 28.448C501.684 29.1307 504.031 30.432 506.25 32.352L503.05 36C501.172 34.3787 499.167 33.3973 497.034 33.056C494.943 32.672 492.98 32.8853 491.146 33.696C489.311 34.464 487.818 35.7227 486.666 37.472C485.514 39.1787 484.938 41.2907 484.938 43.808C484.938 46.496 485.514 48.7787 486.666 50.656C487.86 52.4907 489.396 53.8347 491.274 54.688C493.151 55.4987 495.135 55.712 497.226 55.328C499.359 54.944 501.343 53.8347 503.178 52L506.186 55.84ZM524.978 60.768C521.906 60.768 519.197 60.1067 516.85 58.784C514.546 57.4613 512.733 55.6053 511.41 53.216C510.13 50.784 509.49 47.9467 509.49 44.704C509.49 40.9493 510.173 37.8133 511.538 35.296C512.903 32.7787 514.738 30.88 517.042 29.6C519.389 28.32 522.034 27.68 524.978 27.68C528.007 27.68 530.674 28.32 532.978 29.6C535.325 30.88 537.159 32.7787 538.482 35.296C539.805 37.8133 540.466 40.9493 540.466 44.704C540.466 47.9467 539.805 50.784 538.482 53.216C537.159 55.6053 535.325 57.4613 532.978 58.784C530.674 60.1067 528.007 60.768 524.978 60.768ZM524.978 55.904C527.239 55.904 529.159 55.4133 530.738 54.432C532.317 53.408 533.511 52.0427 534.322 50.336C535.133 48.6293 535.538 46.752 535.538 44.704C535.538 41.2053 534.621 38.3253 532.786 36.064C530.994 33.76 528.391 32.608 524.978 32.608C521.522 32.608 518.898 33.76 517.106 36.064C515.314 38.368 514.418 41.248 514.418 44.704C514.418 46.7947 514.802 48.6933 515.57 50.4C516.381 52.064 517.575 53.408 519.154 54.432C520.733 55.4133 522.674 55.904 524.978 55.904ZM571.693 60H566.637V56.672C565.784 57.952 564.568 58.912 562.989 59.552C561.41 60.192 559.682 60.5333 557.805 60.576C555.928 60.6613 554.093 60.448 552.301 59.936C550.509 59.3813 548.994 58.5493 547.757 57.44C546.477 56.3307 545.474 54.9227 544.749 53.216C544.066 51.5093 543.725 49.5467 543.725 47.328V28H548.845V47.328C548.845 50.272 549.677 52.4267 551.341 53.792C553.048 55.1573 555.224 55.84 557.869 55.84C559.192 55.84 560.514 55.5413 561.837 54.944C563.202 54.3467 564.333 53.4293 565.229 52.192C566.168 50.912 566.637 49.2907 566.637 47.328V28H571.693V60ZM605.507 60H600.451V40.992C600.451 38.944 600.003 37.3013 599.107 36.064C598.254 34.8267 597.144 33.952 595.779 33.44C594.456 32.8853 593.07 32.608 591.619 32.608C590.211 32.608 588.803 32.9067 587.395 33.504C586.03 34.1013 584.878 35.0187 583.939 36.256C583 37.4933 582.531 39.072 582.531 40.992V60H577.475V28H582.531V31.456C583.512 30.1333 584.856 29.1733 586.563 28.576C588.27 27.936 590.04 27.616 591.875 27.616C594.35 27.616 596.611 28.128 598.659 29.152C600.75 30.176 602.414 31.6907 603.651 33.696C604.888 35.6587 605.507 38.0907 605.507 40.992V60ZM615.576 46.176V32.736H610.008V28H615.576V15.2H620.632V28H626.264V32.736H620.632V46.176C620.632 48.9067 620.717 50.912 620.888 52.192C621.101 53.4293 621.506 54.2187 622.104 54.56C622.701 54.9013 623.576 55.0933 624.728 55.136H626.328V60.192H624.92C622.957 60.192 621.357 60.0213 620.12 59.68C618.882 59.296 617.922 58.6133 617.24 57.632C616.6 56.6507 616.152 55.2427 615.896 53.408C615.682 51.5733 615.576 49.1627 615.576 46.176Z" fill="white"/>
<path d="M41.8383 6.78233C38.4744 3.91565 33.5268 3.91568 30.1632 6.7823L26.1191 10.2286C25.6386 10.638 25.0411 10.8855 24.4118 10.9357L19.1154 11.3584C14.7098 11.7099 11.2114 15.2083 10.8598 19.6139L10.4372 24.9103C10.387 25.5396 10.1395 26.1372 9.73002 26.6177L6.28374 30.6617C3.41712 34.0256 3.41715 38.9729 6.2838 42.3365L9.73008 46.3808C10.1395 46.8614 10.387 47.4587 10.4372 48.0881L10.8599 53.3843C11.2115 57.7898 14.7099 61.2881 19.1155 61.6397L24.4119 62.0627C25.0411 62.1128 25.6384 62.3603 26.1189 62.7698L30.1629 66.2159C33.5268 69.0824 38.4744 69.0827 41.8383 66.2159L45.8823 62.7698C46.3626 62.3603 46.9599 62.1128 47.5893 62.0624L52.8858 61.6397C57.2913 61.2884 60.7896 57.7901 61.1415 53.3843L61.5639 48.0881C61.614 47.4587 61.8618 46.8611 62.271 46.3805L65.7174 42.3368C68.5842 38.9729 68.5842 34.0253 65.7174 30.6617L62.271 26.6175C61.8615 26.137 61.6143 25.5396 61.5642 24.9104L61.1415 19.6139C60.7899 15.2084 57.2913 11.7099 52.8858 11.3583L47.5893 10.9357C46.9599 10.8855 46.3626 10.638 45.8823 10.2286L41.8383 6.78233ZM44.4852 23.7715L48.7278 28.0142L27.5145 49.2275L23.2719 44.9846L44.4852 23.7715ZM30.6966 31.196C28.9391 32.9534 26.0899 32.9534 24.3325 31.196C22.5752 29.4389 22.5752 26.5896 24.3325 24.8322C26.0899 23.0748 28.9391 23.0748 30.6966 24.8322C32.454 26.5896 32.454 29.4389 30.6966 31.196ZM41.3031 48.1667C39.5457 46.4093 39.5457 43.5602 41.3031 41.8028C43.0605 40.0454 45.9096 40.0454 47.667 41.8028C49.4244 43.5602 49.4244 46.4093 47.667 48.1667C45.9096 49.9241 43.0605 49.9241 41.3031 48.1667Z" fill="white"/>
</svg>
