<svg width="25" height="24" viewBox="0 0 25 24" fill="none" xmlns="http://www.w3.org/2000/svg">
<path d="M9.5 6H15.5C15.5 4.34315 14.1569 3 12.5 3C10.8431 3 9.5 4.34315 9.5 6ZM7.5 6C7.5 3.23858 9.73858 1 12.5 1C15.2614 1 17.5 3.23858 17.5 6H20.5C21.0523 6 21.5 6.44772 21.5 7V21C21.5 21.5523 21.0523 22 20.5 22H4.5C3.94772 22 3.5 21.5523 3.5 21V7C3.5 6.44772 3.94772 6 4.5 6H7.5ZM5.5 8V20H19.5V8H5.5ZM9.5 10C9.5 11.6569 10.8431 13 12.5 13C14.1569 13 15.5 11.6569 15.5 10H17.5C17.5 12.7614 15.2614 15 12.5 15C9.73858 15 7.5 12.7614 7.5 10H9.5Z" fill="#BDBDBD"/>
</svg>
