<svg width="48" height="48" viewBox="0 0 48 48" fill="none" xmlns="http://www.w3.org/2000/svg">
<path d="M24 3C12.4172 3 3 12.4172 3 24C3 35.5829 12.4172 45 24 45C35.5829 45 45 35.5829 45 24C45 12.4172 35.5829 3 24 3Z" fill="#333333"/>
<path fill-rule="evenodd" clip-rule="evenodd" d="M31.2148 27.057C31.1532 26.9685 31.0911 26.8819 31.0293 26.7958C30.5269 26.0956 30.0483 25.4282 30.0483 24.0905V19.1034C30.0483 18.93 30.0492 18.7578 30.0502 18.5869C30.0612 16.6749 30.0711 14.9301 28.6921 13.5953C27.5095 12.4161 25.5451 12 24.0429 12C21.1047 12 17.8269 13.1364 17.1396 16.9021C17.0668 17.3022 17.3469 17.5114 17.601 17.5704L20.5927 17.9061C20.8729 17.8914 21.0753 17.6058 21.1294 17.3182C21.3861 16.0206 22.434 15.3972 23.6115 15.3972C24.2464 15.3972 24.9676 15.638 25.3434 16.2287C25.731 16.8176 25.7248 17.6039 25.7193 18.3071C25.7187 18.389 25.7181 18.4696 25.7181 18.5488V18.9669C25.4404 18.9991 25.1496 19.0296 24.85 19.0609C23.2183 19.2321 21.3277 19.4302 19.9119 20.0739C17.9788 20.9421 16.6213 22.7086 16.6213 25.3051C16.6213 28.6327 18.6412 30.2962 21.2419 30.2962C23.4366 30.2962 24.6376 29.7591 26.3308 27.9693C26.4154 28.0963 26.4913 28.2135 26.563 28.3239C26.9668 28.9467 27.2305 29.353 28.1005 30.1036C28.3302 30.2307 28.6341 30.2259 28.8376 30.0346C29.4541 29.4661 30.5736 28.4575 31.2046 27.9091C31.4568 27.6943 31.4121 27.3472 31.2148 27.057ZM25.1406 25.6188C24.6505 26.5218 23.8699 27.0742 23.0026 27.0742C21.82 27.0742 21.1257 26.1379 21.1257 24.7527C21.1257 22.0257 23.4858 21.5307 25.7175 21.5307C25.7175 21.6939 25.719 21.858 25.7203 22.0224C25.7313 23.2569 25.7425 24.5159 25.1406 25.6188Z" fill="white"/>
<path d="M34.9049 32.4989C31.9495 34.7841 27.6637 36 23.9727 36C18.8017 36 14.1439 33.9968 10.6194 30.6618C10.3429 30.3996 10.5897 30.0416 10.9218 30.2451C14.725 32.5646 19.4274 33.9608 24.2839 33.9608C27.5607 33.9608 31.1619 33.2487 34.4754 31.7748C34.9752 31.5533 35.3941 32.1209 34.9049 32.4989Z" fill="white"/>
<path d="M32.6836 30.9071C33.6351 30.7866 35.7568 30.5201 36.1345 31.0268C36.5128 31.533 35.7184 33.6149 35.3604 34.5533L35.3578 34.56C35.2501 34.8431 35.4817 34.956 35.7258 34.7415C37.3117 33.3519 37.7215 30.4392 37.3965 30.0171C37.0741 29.6009 34.3015 29.2404 32.6097 30.4859C32.3496 30.6791 32.3941 30.9423 32.6836 30.9071Z" fill="white"/>
</svg>
