<svg width="49" height="48" viewBox="0 0 49 48" fill="none" xmlns="http://www.w3.org/2000/svg">
<path d="M24.5 45C36.098 45 45.5 35.598 45.5 24C45.5 12.402 36.098 3 24.5 3C12.902 3 3.5 12.402 3.5 24C3.5 35.598 12.902 45 24.5 45Z" fill="#3F3F3F"/>
<path d="M34.0464 32.4345C33.6878 33.0038 32.9223 33.1631 32.3244 32.8215C27.6125 30.089 21.7046 29.4741 14.7203 30.9771C14.0506 31.1138 13.3809 30.7266 13.2374 30.089C13.0939 29.4515 13.5005 28.8138 14.1702 28.6772C21.8003 27.0149 28.3539 27.7208 33.6159 30.7949C34.214 31.1364 34.4052 31.8651 34.0464 32.4345ZM36.4862 27.2426C36.0317 27.9485 35.075 28.1535 34.3335 27.7436C28.9518 24.5784 20.7477 23.6675 14.3855 25.512C13.5483 25.7397 12.6873 25.3071 12.4481 24.5328C12.2089 23.7359 12.6633 22.9161 13.5005 22.6884C20.7717 20.5934 29.813 21.5954 36.0078 25.2159C36.7014 25.6259 36.9407 26.5367 36.4862 27.2426ZM36.7014 21.8231C30.2435 18.1796 19.5998 17.838 13.4288 19.6142C12.4481 19.9103 11.3957 19.3865 11.0847 18.4301C10.7738 17.4965 11.3478 16.4946 12.3285 16.1985C19.4084 14.1491 31.1763 14.559 38.591 18.749C39.476 19.2498 39.7631 20.3429 39.2369 21.1854C38.7345 22.0508 37.5864 22.3467 36.7014 21.8231Z" fill="white"/>
</svg>
