<svg width="49" height="48" viewBox="0 0 49 48" fill="none" xmlns="http://www.w3.org/2000/svg">
<path d="M24.0503 45.0002C33.743 45.0002 41.6004 37.4399 41.6004 28.1138C41.6004 18.7877 33.743 11.2273 24.0503 11.2273C14.3575 11.2273 6.5 18.7877 6.5 28.1138C6.5 37.4399 14.3575 45.0002 24.0503 45.0002Z" fill="#3F3F3F"/>
<path fill-rule="evenodd" clip-rule="evenodd" d="M33.0495 10.9155V26.6691C33.0495 28.2546 32.9307 29.7331 32.7086 30.4873C32.1473 32.3826 30.9308 34.0369 29.2601 35.1771C27.5896 36.3172 25.5645 36.8749 23.52 36.7581C21.4754 36.6412 19.5333 35.8567 18.0147 34.5345C16.4961 33.2121 15.4917 31.4308 15.1675 29.4849C14.8432 27.5391 15.2185 25.545 16.2314 23.8321C17.2442 22.1191 18.8339 20.79 20.7381 20.0638C22.6422 19.3378 24.7467 19.2585 26.7042 19.839C28.6616 20.4193 30.3545 21.6249 31.5036 23.2563L31.2506 21.7717V3L42.4997 6.46338V13.8251L33.0495 10.9155Z" fill="white"/>
</svg>
