<svg width="42" height="42" viewBox="0 0 42 42" fill="none" xmlns="http://www.w3.org/2000/svg">
<path d="M34.1557 12.0405L33.916 14.0576C36.7306 16.4329 38.5558 19.6414 39.0754 23.1273C39.595 26.6132 38.7762 30.157 36.761 33.1447C34.7459 36.1324 31.6612 38.3758 28.0412 39.4864C24.4213 40.597 20.4942 40.5048 16.9402 39.2258C13.3862 37.9468 10.4292 35.5615 8.58139 32.4831C6.73356 29.4047 6.11133 25.8272 6.82248 22.3702C7.53363 18.9132 9.53334 15.7945 12.4753 13.5543C15.4172 11.3142 19.1159 10.0937 22.9309 10.1043C24.6167 10.1041 26.2922 10.3478 27.8962 10.8264L28.0959 9.16836C26.3942 8.70524 24.6292 8.47085 22.855 8.47214C20.4622 8.46099 18.0905 8.88525 15.8757 9.72065C13.6609 10.5561 11.6465 11.7861 9.94785 13.3405C8.2492 14.8949 6.89965 16.7432 5.97645 18.7793C5.05326 20.8155 4.57455 22.9995 4.56775 25.2065C4.66292 29.6571 6.63243 33.8987 10.0592 37.0332C13.486 40.1678 18.101 41.949 22.9269 41.9999C27.7495 41.9767 32.3676 40.2003 35.7793 37.0564C39.1909 33.9125 41.1208 29.6546 41.1502 25.2065C41.1526 22.6655 40.5238 20.1578 39.312 17.8758C38.1002 15.5938 36.3377 13.5983 34.1597 12.0423" fill="#A0A0A0"/>
<path d="M33.4646 17.8066L33.0651 21.0747C33.7405 22.4006 34.0923 23.847 34.0957 25.3119C34.0508 28.0429 32.8539 30.6502 30.759 32.5808C28.664 34.5113 25.836 35.6129 22.8749 35.6519C19.9039 35.6422 17.0575 34.5499 14.9558 32.6131C12.854 30.6763 11.6673 28.0521 11.6541 25.3119C11.699 22.5808 12.8959 19.9732 14.9909 18.0427C17.0858 16.1122 19.9139 15.0106 22.8749 14.9716C24.3884 14.9724 25.8851 15.2647 27.269 15.8299L27.5286 13.717C26.046 13.1884 24.4704 12.9169 22.8809 12.9158C20.2451 12.9296 17.6728 13.6634 15.4888 15.0247C13.3049 16.3859 11.6072 18.3133 10.6101 20.5638C9.61296 22.8143 9.36115 25.2868 9.88645 27.6692C10.4117 30.0516 11.6906 32.237 13.5615 33.9496C15.4324 35.6621 17.8115 36.8249 20.3985 37.2912C22.9854 37.7576 25.6641 37.5064 28.0964 36.5696C30.5287 35.6328 32.6055 34.0525 34.0647 32.0278C35.5238 30.0031 36.2998 27.6249 36.2947 25.1938C36.2669 22.5093 35.2712 19.9115 33.4646 17.8066Z" fill="#A0A0A0"/>
<path d="M1.65377 24.632C1.63565 19.4673 3.83658 14.5064 7.77484 10.8349C11.7131 7.16351 17.0679 5.08059 22.6673 5.04213H22.867V3.68433H22.6673C16.6515 3.69506 10.8861 5.90676 6.63643 9.83402C2.38674 13.7613 -1.12592e-05 19.0834 0 24.632H1.65377Z" fill="#A0A0A0"/>
<path d="M30.9981 0L28.4016 21.3178C27.3808 20.6106 26.1948 20.1334 24.9383 19.9243C23.6819 19.7151 22.3899 19.7798 21.1654 20.1132C20.001 20.3123 18.9425 20.8655 18.159 21.6846C17.3755 22.5037 16.9123 23.5416 16.8433 24.632C16.9607 26.0221 17.6185 27.326 18.6956 28.3043C19.7727 29.2825 21.1966 29.869 22.7053 29.9558C28.5214 30.6705 30.0434 27.3768 30.2791 26.2383C30.5886 25.133 32.0247 12.8402 32.0247 12.8402L32.7996 6.10517C34.9576 6.00328 37.0891 6.57992 38.8454 7.74092C39.4877 8.38795 39.9114 9.19383 40.0647 10.0596C40.2179 10.9254 40.0941 11.8135 39.7083 12.6153C39.4247 13.3798 38.7595 14.1112 39.5944 13.8699C40.7974 13.1557 41.6519 12.0379 41.9772 10.7529C42.07 9.75524 41.8794 8.75249 41.4241 7.84346C40.9688 6.93443 40.2645 6.15057 39.3807 5.56906C38.9932 5.21168 35.6897 3.39702 35.1345 2.88674C34.3585 2.26073 33.867 1.3877 33.7583 0.442107L30.9981 0Z" fill="white"/>
</svg>
