<svg width="49" height="48" viewBox="0 0 49 48" fill="none" xmlns="http://www.w3.org/2000/svg">
<path d="M24.5 45C36.098 45 45.5 35.598 45.5 24C45.5 12.402 36.098 3 24.5 3C12.902 3 3.5 12.402 3.5 24C3.5 35.598 12.902 45 24.5 45Z" fill="#3F3F3F"/>
<path d="M24.5 14.4223C29.7819 14.4223 34.0778 18.7182 34.0778 24.0002C34.0778 29.2821 29.7819 33.578 24.5 33.578C19.2181 33.578 14.9222 29.2821 14.9222 24.0002C14.9222 18.7182 19.2181 14.4223 24.5 14.4223ZM24.5 13.5001C18.7 13.5001 14 18.2 14 24.0002C14 29.8002 18.7 34.5002 24.5 34.5002C30.3001 34.5002 35 29.8002 35 24.0002C35 18.2 30.3001 13.5001 24.5 13.5001Z" fill="white"/>
<path d="M21.5 30L30.5 23.7392L21.5 18V30Z" fill="white"/>
</svg>
