<svg width="48" height="49" viewBox="0 0 48 49" fill="none" xmlns="http://www.w3.org/2000/svg">
<g opacity="0.7">
<path d="M18 12.1C18 8.7863 20.6862 6.1 24 6.1C27.3138 6.1 30 8.7863 30 12.1H18ZM14 12.1H8C6.89544 12.1 6 12.9954 6 14.1V42.1C6 43.2046 6.89544 44.1 8 44.1H40C41.1046 44.1 42 43.2046 42 42.1V14.1C42 12.9954 41.1046 12.1 40 12.1H34C34 6.57716 29.5228 2.1 24 2.1C18.4772 2.1 14 6.57716 14 12.1ZM18 20.1C18 23.4138 20.6862 26.1 24 26.1C27.3138 26.1 30 23.4138 30 20.1H34C34 25.6228 29.5228 30.1 24 30.1C18.4772 30.1 14 25.6228 14 20.1H18Z" fill="white"/>
</g>
</svg>
