<svg width="92" height="86" viewBox="0 0 92 86" fill="none" xmlns="http://www.w3.org/2000/svg">
<path d="M48.8834 0.0312234C49.2401 0.0386135 49.5968 0.0460037 49.9644 0.0536178C58.8884 0.568167 68.069 5.38374 74.7113 11.0877C74.9713 11.2978 75.2313 11.5079 75.4992 11.7243C84.4053 19.0065 89.6251 30.9335 90.9193 42.1456C91.3984 47.0014 91.3111 51.7536 90.29 56.5421C90.2304 56.8258 90.1708 57.1095 90.1094 57.4019C88.7583 63.6352 86.5384 69.9395 82.5006 74.9695C81.165 75.3881 80.4838 75.6002 79.2209 74.9695C79.1511 75.2567 79.0814 75.5438 79.0095 75.8397C77.333 82.3958 77.333 82.3958 74.3013 84.388C72.4647 85.3053 69.9597 85.0574 68.0173 84.5463C65.7882 83.5818 64.5302 82.1241 63.6422 79.8835C63.2299 76.9446 63.9085 74.6295 65.1027 71.9751C66.345 69.0575 67.4549 66.1358 68.4337 63.1196C71.8574 52.6833 71.8574 52.6833 74.9931 50.4252C77.382 49.6598 79.5593 50.0434 81.8601 50.9626C82.7691 51.5385 83.4054 52.0873 84.1405 52.8566C84.5464 52.9917 84.9522 53.1268 85.3704 53.2661C85.3946 51.5343 85.4089 49.8025 85.4216 48.0706C85.4319 47.3465 85.4319 47.3465 85.4425 46.6077C85.5064 34.9535 80.879 24.9184 72.9433 16.5136C64.6406 8.56952 54.2042 5.46342 42.9437 5.63624C32.8108 5.98742 23.4818 11.0914 16.5217 18.3099C11.8575 23.6482 8.46263 30.0196 6.65689 36.8861C6.58389 37.1593 6.5109 37.4325 6.43569 37.7139C5.67934 40.9169 5.74447 44.1113 5.78571 47.3795C5.78983 47.9527 5.79357 48.5259 5.79692 49.0991C5.80651 50.4882 5.81995 51.8771 5.83696 53.2661C6.97649 52.5939 8.06414 51.911 9.14231 51.1418C11.1811 49.9851 13.4077 50.0939 15.6761 50.3996C18.5346 51.6742 19.5472 54.2318 20.6278 57.0028C20.9274 57.8036 21.2241 58.6056 21.5182 59.4086C21.7552 60.0474 21.7552 60.0474 21.9971 60.6991C23.5279 64.8483 24.9816 69.024 26.4096 73.2094C26.6522 73.8895 26.9143 74.5628 27.1883 75.2309C27.8377 76.8974 27.7912 78.535 27.5652 80.293C26.4036 82.7027 24.6909 83.8168 22.3125 84.9255C20.2571 85.3683 18.4618 85.3232 16.5281 84.436C13.865 82.5645 12.956 79.1637 11.9865 76.198C11.9865 75.9277 11.9865 75.6575 11.9865 75.379C11.5637 75.4466 11.1409 75.5141 10.7053 75.5838C9.11669 75.379 9.11669 75.379 8.48833 74.7657C7.07231 72.7867 5.85535 70.7953 4.81204 68.5967C4.5778 68.104 4.5778 68.104 4.33882 67.6013C-0.972106 55.8868 -1.39824 42.4347 3.00993 30.3814C6.37322 21.6808 11.8946 14.2558 19.3658 8.6307C19.731 8.35251 20.0962 8.07432 20.4724 7.78771C28.7916 1.84226 38.8079 -0.290311 48.8834 0.0312234Z" fill="#C8C8C8"/>
</svg>
