<svg width="42" height="44" viewBox="0 0 42 44" fill="none" xmlns="http://www.w3.org/2000/svg">
<path d="M16.5938 24.6943C16.8829 24.9265 17.1678 25.1641 17.4471 25.4081C17.5633 25.5076 17.6794 25.607 17.7992 25.7095C19.4801 27.2653 20.7189 29.7969 20.8251 32.0993C20.8691 35.2282 20.0411 38.0178 17.8672 40.3332C15.9781 42.2196 13.4062 43.1663 10.7744 43.2C8.01965 43.1922 5.46045 42.1675 3.47683 40.2347C1.43478 38.0007 0.544354 35.3677 0.602657 32.3629C0.800874 29.4227 2.14097 27.0369 4.32049 25.0965C7.87473 22.2619 12.8827 22.0901 16.5938 24.6943Z" fill="#DD4911"/>
<path d="M22.5227 0.709146C26.0231 0.709146 26.0231 0.709146 26.9748 1.65365C27.2012 1.98223 27.2012 1.98223 27.3604 2.28172C27.8253 3.10482 28.3838 3.84829 28.9438 4.60798C29.7308 5.70252 30.5094 6.80309 31.2737 7.91376C31.999 7.64852 32.3248 7.13679 32.7395 6.51896C32.8924 6.2975 33.0455 6.07626 33.199 5.8552C33.282 5.73517 33.365 5.61515 33.4506 5.49149C34.0611 4.62233 34.6985 3.77243 35.3302 2.91876C35.4296 2.78397 35.5291 2.64918 35.6315 2.5103C35.7274 2.38267 35.8232 2.25504 35.922 2.12355C36.2079 1.73426 36.2079 1.73426 36.4854 1.14227C36.9411 0.634898 37.049 0.63706 37.7023 0.600006C38.0208 0.605363 38.3393 0.616308 38.6574 0.632268C38.8198 0.635552 38.9821 0.638837 39.1493 0.642221C40.3404 0.674588 40.3404 0.674588 40.5498 0.884868C40.5666 1.14497 40.5712 1.40586 40.5709 1.6665C40.5713 1.9197 40.5713 1.9197 40.5716 2.17801C40.5707 2.45804 40.5707 2.45804 40.5697 2.74372C40.5697 2.93914 40.5698 3.13455 40.5698 3.33588C40.5697 3.98529 40.5683 4.63469 40.5669 5.2841C40.5666 5.73298 40.5664 6.18186 40.5662 6.63074C40.5656 7.69369 40.5642 8.75663 40.5625 9.81958C40.5605 11.0294 40.5595 12.2393 40.5587 13.4491C40.5568 15.9385 40.5536 18.4278 40.5498 20.9172C39.2792 20.9172 38.0085 20.9172 36.6994 20.9172C36.6994 16.6261 36.6994 12.3349 36.6994 7.91376C36.044 8.57177 35.5663 9.11962 35.0476 9.86867C34.8972 10.0839 34.7466 10.299 34.5957 10.5139C34.5139 10.6304 34.4321 10.747 34.3478 10.8671C33.8204 11.6096 33.2793 12.3421 32.7395 13.0756C32.6296 13.2251 32.5196 13.3747 32.4063 13.5287C32.1456 13.883 31.8848 14.2372 31.6238 14.5912C30.9256 13.9246 30.3471 13.2157 29.7751 12.4386C29.6572 12.281 29.6572 12.281 29.5368 12.1201C28.5116 10.7385 27.5381 9.32174 26.5482 7.91376C26.4904 12.2049 26.4326 16.496 26.3731 20.9172C25.1025 20.9172 23.8318 20.9172 22.5227 20.9172C22.5227 14.2485 22.5227 7.57989 22.5227 0.709146Z" fill="#C8C8C8"/>
<path d="M10.0911 0.669247C10.2286 0.671087 10.3661 0.672928 10.5078 0.674824C10.6567 0.675956 10.8056 0.677089 10.959 0.678256C11.1925 0.682673 11.1925 0.682673 11.4307 0.687179C11.6663 0.689558 11.6663 0.689558 11.9066 0.691984C12.2949 0.696132 12.6832 0.701918 13.0715 0.709145C14.2302 3.58482 15.3483 6.47617 16.4654 9.36829C16.7273 10.0462 16.9895 10.7239 17.2525 11.4013C17.307 11.5419 17.3616 11.6824 17.4178 11.8272C17.5211 12.0935 17.6246 12.3598 17.7281 12.6261C18.0928 13.5659 18.4449 14.5099 18.7939 15.4557C19.0417 16.1258 19.3032 16.789 19.574 17.4501C19.6384 17.6081 19.7028 17.7662 19.7692 17.929C19.8958 18.2381 20.0237 18.5468 20.153 18.8548C20.2108 18.996 20.2686 19.1373 20.3281 19.2829C20.3801 19.4076 20.432 19.5323 20.4856 19.6609C20.5974 20.0386 20.5974 20.0386 20.5974 20.9172C19.3268 20.9172 18.0561 20.9172 16.747 20.9172C16.0118 19.1726 15.3267 17.4126 14.6467 15.6455C12.452 15.6455 10.2572 15.6455 7.99593 15.6455C7.3697 17.3145 7.3697 17.3145 6.7445 18.9839C6.66676 19.1904 6.58903 19.3968 6.50893 19.6096C6.42919 19.8222 6.34945 20.0347 6.2673 20.2537C6.0707 20.7415 6.0707 20.7415 5.89568 20.9172C5.60956 20.9325 5.32281 20.936 5.03629 20.9344C4.86314 20.9338 4.68998 20.9332 4.51157 20.9326C4.32939 20.9312 4.14721 20.9297 3.9595 20.9282C3.77665 20.9274 3.59379 20.9266 3.40539 20.9258C2.95198 20.9237 2.4986 20.9208 2.04521 20.9172C2.14264 19.884 2.44403 19.0367 2.84375 18.0837C3.46731 16.5764 4.04771 15.0545 4.62442 13.5287C5.04398 12.4192 5.4678 11.3113 5.89226 10.2036C5.96672 10.0093 6.04118 9.81497 6.11789 9.61474C6.34642 9.01844 6.575 8.42217 6.8036 7.8259C7.03444 7.22358 7.26526 6.62125 7.49604 6.01891C7.64271 5.6363 7.78951 5.25373 7.93644 4.87122C8.23068 4.10497 8.5245 3.33868 8.81061 2.56933C8.88763 2.3632 8.96465 2.15707 9.044 1.94469C9.10567 1.77718 9.16733 1.60967 9.23086 1.43709C9.43373 0.974831 9.57177 0.729309 10.0911 0.669247Z" fill="#C8C8C8"/>
<path d="M23.2228 23.553C24.4357 23.553 25.6486 23.553 26.8982 23.553C26.8982 25.8726 26.8982 28.1921 26.8982 30.5819C27.7092 29.8694 28.4647 29.193 29.2124 28.4286C29.5351 28.1104 29.8698 27.8137 30.2127 27.5178C30.8296 26.9843 31.4002 26.4169 31.9711 25.8347C32.4287 25.3823 32.9097 24.962 33.3986 24.5442C33.737 24.2602 33.737 24.2602 34.0207 23.8908C34.5663 23.434 34.8995 23.472 35.6028 23.4844C35.9429 23.4878 35.9429 23.4878 36.2899 23.4913C36.5285 23.4971 36.7671 23.5031 37.0057 23.5091C37.247 23.5126 37.4883 23.5158 37.7297 23.5187C38.3198 23.527 38.9097 23.5386 39.4997 23.553C39.2098 24.1772 38.897 24.5195 38.373 24.9698C37.6946 25.5664 37.0483 26.1812 36.415 26.8259C35.7651 27.4857 35.1023 28.1107 34.3995 28.7128C33.8568 29.1924 33.3528 29.7103 32.8489 30.2305C33.3213 31.0933 33.8351 31.8826 34.4241 32.6686C35.1328 33.6267 35.8295 34.5919 36.5134 35.568C36.644 35.7543 36.644 35.7543 36.7773 35.9444C37.132 36.4508 37.4863 36.9575 37.8406 37.4643C38.1054 37.8428 38.3704 38.2211 38.6356 38.5993C38.7639 38.7824 38.7639 38.7824 38.8948 38.9691C39.5904 39.9583 40.3014 40.9355 41.0223 41.9061C41.6 42.6883 41.6 42.6883 41.6 42.8825C37.7243 43.2127 37.7243 43.2127 36.7075 42.7152C36.1093 42.1979 35.8115 41.4742 35.4742 40.7738C35.2019 40.3592 34.9056 39.9639 34.6101 39.5657C34.4618 39.3575 34.3142 39.1488 34.167 38.9397C33.8766 38.5288 33.585 38.1187 33.2919 37.7097C32.189 36.1687 31.1147 34.6089 30.0486 33.042C28.8285 33.7364 27.3686 34.6545 26.9554 36.086C26.7832 37.1904 26.8221 38.2982 26.8545 39.412C26.8565 39.7495 26.8577 40.0869 26.8579 40.4244C26.8586 41.2449 26.8788 42.0614 26.8982 42.8825C25.6853 42.8825 24.4724 42.8825 23.2228 42.8825C23.2228 36.5038 23.2228 30.1251 23.2228 23.553Z" fill="#DD4911"/>
<path d="M14.3151 27.5857C15.7012 28.5717 16.7902 30.1037 17.097 31.812C17.2465 33.8816 17.0389 35.7733 15.6969 37.4351C15.5813 37.4351 15.4658 37.4351 15.3468 37.4351C15.3017 37.5418 15.2566 37.6485 15.2101 37.7584C14.7255 38.6207 13.6855 39.0196 12.7871 39.3351C10.9324 39.8372 9.12204 39.6788 7.42438 38.8148C5.99567 37.9707 4.83629 36.5178 4.39022 34.9009C4.04991 32.69 4.30632 30.8448 5.59417 29.0245C7.7657 26.3202 11.371 25.8686 14.3151 27.5857Z" fill="#0F0F0F"/>
<path d="M11.1463 7.03515C11.2618 7.03515 11.3773 7.03515 11.4964 7.03515C11.5316 7.12636 11.5669 7.21758 11.6033 7.31156C11.7645 7.7283 11.9258 8.14502 12.087 8.56174C12.1425 8.70523 12.1981 8.84873 12.2552 8.99658C12.3094 9.13645 12.3635 9.27633 12.4193 9.42044C12.4716 9.55621 12.5239 9.69198 12.5778 9.83186C12.6917 10.1221 12.8127 10.4095 12.9362 10.6958C13.0715 11.0768 13.0715 11.0768 13.0715 11.7796C11.9164 11.7796 10.7613 11.7796 9.57112 11.7796C9.70136 11.1258 9.84314 10.5865 10.0695 9.96957C10.1321 9.79799 10.1947 9.6264 10.2592 9.44961C10.3572 9.18408 10.3572 9.18408 10.4572 8.91318C10.5562 8.64255 10.5562 8.64255 10.6571 8.36645C10.8196 7.92247 10.9827 7.47871 11.1463 7.03515Z" fill="#0F0F0F"/>
</svg>
