<svg width="93" height="84" viewBox="0 0 93 84" fill="none" xmlns="http://www.w3.org/2000/svg">
<path d="M46.3049 0.803144C46.8643 0.807145 47.4237 0.811145 48.0001 0.815267C51.8448 0.875016 55.3642 1.12663 59.0634 2.2355C59.5755 2.375 60.0876 2.51451 60.6151 2.65824C65.375 4.07931 70.0128 6.34634 73.9174 9.4503C73.6565 10.9605 73.0528 11.8547 72.1154 13.0544C71.8321 13.4207 71.5488 13.7869 71.2569 14.1643C70.9532 14.5519 70.6495 14.9395 70.3366 15.3389C69.712 16.1462 69.0881 16.9541 68.4649 17.7626C68.1612 18.1563 67.8575 18.5501 67.5446 18.9558C66.4716 20.3633 65.4389 21.7954 64.4215 23.2433C63.019 25.2225 61.6057 27.1908 60.151 29.1319C59.9754 29.3723 59.7999 29.6128 59.619 29.8605C59.1181 30.5211 59.1181 30.5211 58.2146 31.5191C56.7286 31.5191 55.9672 31.1233 54.6338 30.4846C50.527 28.5235 45.5679 28.2334 41.1275 29.3076C40.1302 29.7078 39.206 30.1479 38.2678 30.6703C37.7554 30.9187 37.2426 31.1664 36.7294 31.413C36.3967 31.5881 36.0641 31.7632 35.7214 31.9435C31.3813 26.6332 27.347 21.0855 23.2951 15.5545C23.0585 15.2322 22.822 14.9099 22.5783 14.5779C22.3572 14.2752 22.1362 13.9724 21.9085 13.6605C21.3846 12.9681 20.8182 12.3082 20.2441 11.6569C19.5942 10.7235 19.5942 10.7235 19.6795 9.87916C20.0922 8.84081 20.4479 8.58711 21.3996 8.02127C21.6888 7.84815 21.978 7.67503 22.276 7.49667C22.5902 7.31856 22.9044 7.14045 23.2281 6.95695C23.7138 6.67789 23.7138 6.67789 24.2092 6.39319C31.1414 2.51721 38.3516 0.714769 46.3049 0.803144Z" fill="#00B03B"/>
<path d="M65.0051 46.7974C74.1084 46.7974 83.2118 46.7974 92.5911 46.7974C92.5911 53.7046 92.5911 53.7046 91.8749 56.5851C91.7985 56.9069 91.7221 57.2287 91.6433 57.5602C89.878 64.7009 86.5343 70.7823 81.9811 76.5054C81.6977 76.8725 81.4143 77.2396 81.1223 77.6178C80.3378 78.5621 79.5445 79.3438 78.6124 80.1393C78.3197 80.3899 78.027 80.6404 77.7255 80.8986C76.7509 81.713 75.7672 82.5138 74.7663 83.2958C73.4437 82.7274 72.7512 82.1869 71.9347 81.0064C71.7261 80.7101 71.5174 80.4139 71.3025 80.1086C71.08 79.7861 70.8576 79.4636 70.6284 79.1314C68.2161 75.7082 65.715 72.366 63.157 69.0505C61.2974 66.6308 59.5201 64.1655 57.7903 61.6514C57.9683 61.4453 58.1463 61.2392 58.3297 61.0268C58.7759 60.5091 59.2203 59.9899 59.6636 59.4697C60.1848 58.8586 60.7107 58.2515 61.2385 57.6461C63.6835 54.3046 64.4932 50.8921 65.0051 46.7974Z" fill="#00B03B"/>
<path d="M0.920574 46.7974C10.024 46.7974 19.1273 46.7974 28.5066 46.7974C28.9268 49.3183 28.9268 49.3183 29.3554 51.8902C30.6602 55.2827 32.2552 57.8297 34.8726 60.3782C35.1527 60.7983 35.4328 61.2185 35.7214 61.6514C31.8862 66.8771 28.0197 72.0781 24.1238 77.2587C23.1167 78.5982 22.1113 79.939 21.1061 81.2799C20.6021 81.9519 20.0982 82.6238 19.5942 83.2958C16.0994 82.0196 13.8359 79.3331 11.5306 76.5054C11.228 76.1388 10.9255 75.7723 10.6138 75.3947C7.9598 72.035 6.09313 68.4997 4.31578 64.6222C4.14126 64.2567 3.96674 63.8913 3.78693 63.5148C2.80856 61.3068 2.22245 59.007 1.66327 56.6647C1.58873 56.3666 1.5142 56.0685 1.4374 55.7614C0.741782 52.6409 0.920574 50.1947 0.920574 46.7974Z" fill="#00B03B"/>
<path d="M51.3629 38.5646C53.4049 39.8962 54.8245 41.6598 55.8539 43.853C56.4612 47.0241 55.972 49.5157 54.3951 52.3145C52.6421 54.3375 50.6909 55.5408 48.0075 55.8672C44.8778 55.9309 42.7643 55.7153 40.3898 53.5877C38.4281 51.6259 37.5517 49.309 37.2599 46.5851C37.5893 43.5104 38.5701 41.4622 40.864 39.3603C44.1068 36.8172 47.7749 36.7926 51.3629 38.5646Z" fill="white"/>
</svg>
