<svg width="76" height="76" viewBox="0 0 76 76" fill="none" xmlns="http://www.w3.org/2000/svg">
<path d="M27.4986 0.883596C28.2697 1.31303 28.8554 1.8399 29.2558 2.64072C29.2801 3.02805 29.2886 3.41641 29.2895 3.8045C29.2906 4.0513 29.2917 4.29811 29.2928 4.55239C29.2928 4.8255 29.2928 5.09861 29.2927 5.38C29.2936 5.66861 29.2946 5.95721 29.2955 6.25457C29.2978 7.05809 29.299 7.86161 29.2996 8.66515C29.3006 9.53082 29.303 10.3965 29.3052 11.2621C29.3102 13.3539 29.3127 15.4456 29.3149 17.5373C29.316 18.5218 29.3174 19.5063 29.3187 20.4907C29.3229 23.7623 29.3266 27.0338 29.3284 30.3054C29.3289 31.1547 29.3294 32.0039 29.3299 32.8532C29.33 33.0642 29.3301 33.2753 29.3302 33.4928C29.3323 36.9137 29.3387 40.3345 29.3468 43.7554C29.3551 47.2656 29.3596 50.7758 29.3604 54.2861C29.361 56.2577 29.3632 58.2293 29.3696 60.201C29.375 61.8798 29.3771 63.5586 29.3746 65.2374C29.3735 66.0943 29.374 66.951 29.3788 67.8078C29.3832 68.7362 29.3815 69.6645 29.3782 70.5929C29.381 70.8643 29.3837 71.1358 29.3865 71.4154C29.3708 73.2355 29.3708 73.2355 28.7931 74.2012C27.7557 75.1242 27.1405 75.2959 25.7974 75.2653C24.9602 75.1447 24.5474 74.795 23.9844 74.1809C23.521 73.4157 23.4193 72.8493 23.4178 71.9598C23.4162 71.7139 23.4145 71.468 23.4129 71.2146C23.4136 70.9451 23.4144 70.6756 23.4152 70.3979C23.4141 70.1111 23.4129 69.8243 23.4118 69.5288C23.4091 68.7326 23.4088 67.9364 23.4094 67.1402C23.4095 66.2816 23.4067 65.4229 23.4043 64.5643C23.4001 62.882 23.3988 61.1997 23.3985 59.5175C23.3982 58.1502 23.3972 56.7829 23.3956 55.4156C23.3912 51.5397 23.3889 47.6639 23.3893 43.788C23.3893 43.5791 23.3893 43.3701 23.3893 43.1548C23.3893 42.9455 23.3894 42.7363 23.3894 42.5207C23.3896 39.1293 23.3848 35.7379 23.3777 32.3464C23.3705 28.8648 23.367 25.3832 23.3675 21.9016C23.3676 19.9467 23.3662 17.9917 23.3608 16.0368C23.3563 14.3724 23.3552 12.7081 23.3586 11.0437C23.3602 10.1944 23.3597 9.34534 23.3559 8.4961C23.352 7.57546 23.3543 6.65503 23.3582 5.73439C23.3556 5.46599 23.3531 5.19759 23.3504 4.92105C23.3645 3.41393 23.4687 2.5263 24.4864 1.38563C25.496 0.7126 26.3119 0.679407 27.4986 0.883596Z" fill="white"/>
<path d="M62.0607 14.4855C63.0035 15.2245 63.5866 15.811 63.7716 17.024C63.7721 17.4996 63.7721 17.4996 63.7727 17.9849C63.7751 18.251 63.7751 18.251 63.7775 18.5223C63.7815 19.1151 63.7783 19.7077 63.7751 20.3005C63.7765 20.7261 63.7783 21.1517 63.7805 21.5772C63.785 22.7322 63.7833 23.8872 63.7801 25.0422C63.7775 26.2512 63.7799 27.4602 63.7815 28.6693C63.7833 30.6999 63.7809 32.7305 63.7761 34.7611C63.7707 37.108 63.7724 39.4548 63.7779 41.8017C63.7825 43.8171 63.7831 45.8325 63.7805 47.8479C63.779 49.0514 63.7787 50.2549 63.7821 51.4584C63.785 52.5902 63.7829 53.7219 63.7771 54.8537C63.7758 55.2687 63.7762 55.6838 63.7784 56.0989C63.7812 56.6662 63.7777 57.2331 63.7727 57.8004C63.7723 58.1176 63.772 58.4348 63.7716 58.7616C63.5937 59.9725 63.0234 60.7182 62.2019 61.5984C61.3504 62.0242 60.5484 62.0417 59.6289 61.8808C58.6182 61.3567 58.017 60.9412 57.6208 59.8727C57.5562 59.0712 57.5562 59.0712 57.5536 58.1039C57.5519 57.8367 57.5519 57.8367 57.5502 57.564C57.547 56.9671 57.5474 56.3701 57.5479 55.7732C57.5463 55.3451 57.5446 54.9171 57.5427 54.4891C57.5383 53.3263 57.5371 52.1636 57.5368 51.0008C57.5363 50.0301 57.5345 49.0595 57.5327 48.0889C57.5286 45.7988 57.5274 43.5088 57.5277 41.2188C57.5281 38.8564 57.5228 36.494 57.5148 34.1316C57.5083 32.1034 57.5056 30.0752 57.5059 28.047C57.506 26.8356 57.5046 25.6243 57.4993 24.4129C57.4944 23.2735 57.4944 22.1342 57.498 20.9948C57.4986 20.5769 57.4974 20.159 57.4943 19.7411C57.4905 19.17 57.4928 18.5992 57.4967 18.028C57.4964 17.7086 57.4961 17.3892 57.4958 17.0602C57.6637 15.8987 58.1377 15.059 59.0798 14.3443C60.1432 14.0404 61.0457 14.037 62.0607 14.4855Z" fill="#FFD725"/>
<path d="M15.7008 14.1872C16.9011 14.6258 17.413 15.0489 17.9599 16.1954C18.0554 17.0277 18.0554 17.0277 18.0573 17.9943C18.0586 18.1727 18.06 18.3511 18.0613 18.5348C18.0649 19.1311 18.0631 19.7271 18.0614 20.3234C18.0628 20.7514 18.0645 21.1795 18.0666 21.6075C18.0711 22.7693 18.0708 23.931 18.0694 25.0927C18.0686 26.0627 18.0701 27.0328 18.0716 28.0028C18.0752 30.2913 18.0748 32.5797 18.0719 34.8682C18.069 37.2288 18.0726 39.5893 18.0793 41.9498C18.0848 43.977 18.0865 46.0041 18.085 48.0313C18.0842 49.2418 18.0848 50.4523 18.0891 51.6628C18.093 52.8012 18.092 53.9394 18.0873 55.0778C18.0864 55.4953 18.0871 55.9128 18.0898 56.3303C18.0931 56.9009 18.0902 57.4711 18.0857 58.0417C18.0857 58.3608 18.0856 58.6798 18.0856 59.0086C17.9366 60.0332 17.5998 60.5772 16.9559 61.3786C15.9765 61.961 15.0656 62.0184 13.9436 61.8807C13.0024 61.3413 12.3177 60.6408 11.9355 59.6215C11.8695 58.8247 11.8695 58.8247 11.865 57.864C11.8635 57.687 11.862 57.5101 11.8605 57.3277C11.8561 56.7348 11.8554 56.1419 11.8546 55.549C11.8523 55.1239 11.8498 54.6987 11.8471 54.2736C11.8405 53.1186 11.8372 51.9636 11.835 50.8086C11.8335 50.0868 11.8315 49.3651 11.8292 48.6434C11.8224 46.3849 11.8175 44.1264 11.8156 41.8679C11.8133 39.2614 11.8045 36.655 11.79 34.0486C11.7791 32.0333 11.774 30.0182 11.7734 28.0029C11.7729 26.7995 11.7699 25.5962 11.7609 24.3928C11.7526 23.2606 11.7516 22.1286 11.756 20.9964C11.7564 20.5814 11.7542 20.1664 11.7492 19.7514C11.7095 16.2264 11.7095 16.2264 12.6684 15.0719C13.7662 14.1723 14.2799 14.0925 15.7008 14.1872Z" fill="#FFD725"/>
<path d="M38.5434 14.1874C39.3428 14.569 39.9832 15.0115 40.5516 15.6935C40.8425 16.5663 40.8357 17.2466 40.8378 18.1678C40.8386 18.3439 40.8393 18.5199 40.8401 18.7013C40.8423 19.2927 40.8427 19.8841 40.843 20.4755C40.8442 20.8989 40.8455 21.3224 40.8468 21.7458C40.8501 22.8972 40.8517 24.0486 40.8528 25.1999C40.8536 25.919 40.8546 26.6381 40.8557 27.3572C40.8592 29.6063 40.8616 31.8554 40.8626 34.1045C40.8637 36.7022 40.8681 39.2998 40.8754 41.8974C40.8808 43.9045 40.8833 45.9116 40.8837 47.9187C40.8839 49.1179 40.8854 50.317 40.8899 51.5162C40.894 52.644 40.8946 53.7718 40.8924 54.8996C40.8922 55.3136 40.8933 55.7276 40.8957 56.1415C40.8989 56.7067 40.8975 57.2716 40.8948 57.8367C40.8952 58.153 40.8956 58.4692 40.896 58.7951C40.7601 59.9975 40.2222 60.8584 39.2965 61.6298C38.3662 61.9399 37.7659 61.9951 36.7863 61.8809C35.8269 61.2817 35.1392 60.7048 34.7782 59.6217C34.7534 59.0484 34.7443 58.4743 34.7429 57.9005C34.7422 57.7244 34.7414 57.5484 34.7406 57.367C34.7385 56.7756 34.7381 56.1842 34.7377 55.5928C34.7365 55.1693 34.7353 54.7459 34.7339 54.3225C34.7306 53.1711 34.729 52.0197 34.7279 50.8684C34.7272 50.1493 34.7261 49.4302 34.725 48.7111C34.7216 46.462 34.7192 44.2129 34.7182 41.9638C34.7171 39.3661 34.7127 36.7685 34.7054 34.1709C34.7 32.1638 34.6974 30.1567 34.6971 28.1496C34.6968 26.9504 34.6953 25.7513 34.6909 24.5521C34.6867 23.4243 34.6862 22.2965 34.6884 21.1687C34.6886 20.7547 34.6875 20.3407 34.685 19.9268C34.6818 19.3616 34.6833 18.7967 34.6859 18.2316C34.6855 17.9153 34.6852 17.599 34.6848 17.2732C34.819 16.0852 35.2763 15.4535 36.096 14.611C36.9883 14.0635 37.5117 14.0585 38.5434 14.1874Z" fill="#FFD725"/>
<path d="M73.1839 25.734C73.9678 26.1558 74.5373 26.6837 74.941 27.4911C74.9709 28.1494 74.9858 28.8013 74.9895 29.4598C74.9915 29.6631 74.9936 29.8664 74.9957 30.0759C75.0019 30.7505 75.0061 31.4251 75.0097 32.0997C75.011 32.33 75.0123 32.5602 75.0137 32.7975C75.0204 34.0167 75.0253 35.2358 75.0289 36.455C75.0331 37.7138 75.0443 38.9725 75.0571 40.2313C75.0656 41.1995 75.0685 42.1677 75.0699 43.1359C75.0716 43.5999 75.0754 44.0639 75.0814 44.5278C75.0894 45.178 75.0894 45.8278 75.0875 46.4781C75.0916 46.669 75.0957 46.86 75.1 47.0567C75.0829 48.5157 74.6871 49.0987 73.6859 50.0828C72.8988 50.5592 72.4786 50.5865 71.5523 50.5534C70.5767 50.3095 70.1163 50.0473 69.4186 49.3297C68.8657 48.2688 68.8422 47.2606 68.8437 46.0896C68.842 45.8935 68.8403 45.6974 68.8386 45.4954C68.8338 44.8493 68.8328 44.2034 68.8323 43.5573C68.8307 43.1068 68.829 42.6564 68.8272 42.2059C68.8242 41.2625 68.8233 40.3191 68.8236 39.3757C68.8236 38.1684 68.8168 36.9612 68.8081 35.7539C68.8025 34.8238 68.8015 33.8938 68.8018 32.9637C68.8012 32.5186 68.799 32.0736 68.7951 31.6285C68.7902 31.0055 68.7916 30.3827 68.7947 29.7597C68.7918 29.5769 68.789 29.3942 68.7861 29.2059C68.8017 27.9339 69.1171 27.213 69.9207 26.2361C70.9855 25.5262 71.9335 25.5379 73.1839 25.734Z" fill="white"/>
<path d="M4.90701 25.7342C5.81751 26.2653 6.29286 26.7658 6.66413 27.7423C6.71316 28.4034 6.73531 29.0379 6.73308 29.6988C6.735 29.9929 6.735 29.9929 6.73697 30.2929C6.74045 30.9403 6.74021 31.5877 6.73964 32.2351C6.74061 32.686 6.7417 33.1368 6.7429 33.5876C6.74477 34.5325 6.7447 35.4774 6.74337 36.4223C6.74192 37.6316 6.74617 38.8408 6.75199 40.05C6.7557 40.9812 6.75591 41.9123 6.75513 42.8435C6.75526 43.2892 6.75657 43.735 6.7591 44.1807C6.76221 44.805 6.7605 45.429 6.75759 46.0533C6.76047 46.328 6.76047 46.328 6.76341 46.6082C6.74913 48.0006 6.44521 49.0556 5.43944 50.0447C4.46989 50.5714 3.46664 50.4934 2.39683 50.3339C1.54465 49.8191 1.19113 49.4039 0.639702 48.5768C0.587036 47.9026 0.563376 47.2541 0.562791 46.5796C0.560701 46.3763 0.558612 46.1729 0.556459 45.9634C0.550404 45.2902 0.548207 44.617 0.54655 43.9438C0.5443 43.4757 0.54201 43.0076 0.539683 42.5396C0.535541 41.5577 0.53361 40.5759 0.532884 39.594C0.531533 38.3371 0.522079 37.0804 0.510608 35.8236C0.503134 34.8565 0.501325 33.8894 0.501074 32.9222C0.500019 32.459 0.496897 31.9957 0.491656 31.5325C0.484898 30.8835 0.486112 30.2349 0.48925 29.5859C0.485526 29.3953 0.481803 29.2048 0.477966 29.0084C0.497943 27.5543 0.8962 26.9658 1.89479 25.9852C2.82411 25.5205 3.89266 25.6176 4.90701 25.7342Z" fill="white"/>
<path d="M49.1489 25.6086C49.3832 25.5905 49.6175 25.5724 49.8588 25.5537C50.9691 25.8268 51.5019 26.5394 52.0984 27.4913C52.3001 28.2001 52.3052 28.8647 52.2933 29.5984C52.2959 29.8015 52.2986 30.0046 52.3013 30.2139C52.3079 30.8806 52.3035 31.5468 52.2984 32.2135C52.2994 32.6796 52.3009 33.1456 52.3028 33.6116C52.305 34.5865 52.3018 35.5611 52.2947 36.536C52.2862 37.7828 52.2911 39.0291 52.3001 40.2759C52.3056 41.2376 52.3038 42.1993 52.2999 43.1611C52.2989 43.6206 52.3002 44.0802 52.3037 44.5397C52.3075 45.1833 52.3016 45.8261 52.2933 46.4696C52.2963 46.6577 52.2994 46.8458 52.3025 47.0396C52.271 48.3564 51.8694 49.037 50.9839 50.0025C50.1959 50.6693 49.4482 50.5376 48.4753 50.478C47.5509 50.2712 47.1259 49.8304 46.576 49.0788C46.4932 48.996 46.4103 48.9131 46.325 48.8278C46.2958 48.1623 46.2828 47.5033 46.2806 46.8375C46.2789 46.629 46.2773 46.4204 46.2756 46.2055C46.2706 45.512 46.2677 44.8186 46.2652 44.1251C46.2641 43.8888 46.2631 43.6524 46.2621 43.4089C46.2568 42.1574 46.2532 40.906 46.2509 39.6546C46.2481 38.3611 46.2395 37.0678 46.2295 35.7743C46.2229 34.7807 46.2208 33.7872 46.2199 32.7935C46.2187 32.3167 46.2158 31.84 46.2111 31.3632C46.205 30.6955 46.2053 30.0281 46.207 29.3604C46.2038 29.1635 46.2006 28.9665 46.1973 28.7636C46.2062 27.8254 46.291 27.2932 46.803 26.4959C47.5785 25.7429 48.0876 25.6666 49.1489 25.6086Z" fill="white"/>
</svg>
