<svg width="52" height="89" viewBox="0 0 52 89" fill="none" xmlns="http://www.w3.org/2000/svg">
<path d="M25.563 0.219072C25.953 0.212963 26.3431 0.206854 26.7449 0.20056C30.0545 0.187515 33.3509 0.518722 36.2381 2.0702C36.9053 2.66256 36.9053 2.66256 36.981 3.27358C36.9775 3.51865 36.974 3.76371 36.9704 4.0162C36.9683 4.28155 36.9661 4.5469 36.9639 4.82029C36.9555 5.23664 36.9555 5.23664 36.947 5.66139C36.9439 5.94125 36.9409 6.22111 36.9378 6.50944C36.93 7.20176 36.919 7.89394 36.9053 8.58618C37.339 8.57455 37.339 8.57455 37.7816 8.56268C38.8659 8.53728 39.9499 8.5188 41.0345 8.50483C41.5017 8.49743 41.9689 8.48737 42.436 8.47446C47.092 8.34915 47.092 8.34915 49.0496 9.57285C50.8847 11.2767 51.1106 12.4942 51.0857 14.7987C51.0878 15.0951 51.0899 15.3915 51.092 15.6969C51.0973 16.6894 51.0931 17.6817 51.0889 18.6742C51.0907 19.386 51.0931 20.0978 51.096 20.8096C51.1015 22.542 51.1007 24.2743 51.0968 26.0067C51.0938 27.4149 51.0934 28.8232 51.0948 30.2315C51.095 30.432 51.0952 30.6326 51.0955 30.8392C51.0959 31.2466 51.0963 31.6541 51.0967 32.0615C51.1006 35.8811 51.0962 39.7006 51.089 43.5201C51.0831 46.7957 51.0841 50.0713 51.0902 53.3469C51.0974 57.1524 51.1002 60.9579 51.0961 64.7635C51.0957 65.1695 51.0952 65.5755 51.0948 65.9816C51.0945 66.2812 51.0945 66.2812 51.0942 66.5869C51.0931 67.9929 51.095 69.3989 51.0981 70.805C51.1023 72.6985 51.0993 74.592 51.0916 76.4855C51.0898 77.1805 51.0904 77.8755 51.0933 78.5705C51.0969 79.5192 51.0924 80.4676 51.0857 81.4163C51.0887 81.6914 51.0917 81.9665 51.0947 82.2499C51.0676 84.2416 50.6193 85.5332 49.0137 87.0013C46.9926 88.1595 45.1221 88.1746 42.7634 88.159C42.354 88.162 41.9447 88.1651 41.523 88.1683C40.4069 88.1749 39.2914 88.1749 38.1754 88.1713C37.2411 88.1692 36.3068 88.1717 35.3725 88.1743C33.1675 88.1802 30.9625 88.1785 28.7574 88.172C26.4879 88.1654 24.2187 88.1706 21.9492 88.1818C19.9952 88.191 18.0412 88.1934 16.0871 88.1901C14.9224 88.1882 13.7579 88.1887 12.5932 88.1958C11.2941 88.2033 9.99534 88.1963 8.69622 88.1879C8.31385 88.1919 7.93148 88.196 7.53752 88.2002C5.41862 88.1729 4.07807 87.9324 2.41334 86.7399C0.804077 85.0744 0.732387 83.545 0.747593 81.4519C0.745797 81.1553 0.744 80.8587 0.742149 80.5532C0.737379 79.56 0.739757 78.5669 0.742132 77.5738C0.740229 76.8615 0.737906 76.1492 0.735194 75.4369C0.729825 73.7034 0.729179 71.97 0.730928 70.2366C0.732277 68.8276 0.731794 67.4186 0.730012 66.0097C0.729762 65.809 0.72951 65.6084 0.729253 65.4017C0.728742 64.994 0.728231 64.5864 0.727716 64.1788C0.723138 60.3579 0.72495 56.537 0.728777 52.7161C0.732092 49.221 0.727773 45.7261 0.719793 42.2311C0.711658 38.6411 0.708449 35.0512 0.710669 31.4613C0.711834 29.4463 0.711087 27.4313 0.705248 25.4164C0.699826 23.5221 0.701396 21.6279 0.707686 19.7336C0.708918 19.038 0.707869 18.3424 0.704387 17.6468C0.7 16.698 0.703816 15.7495 0.709722 14.8007C0.706518 14.5248 0.703313 14.2488 0.700012 13.9645C0.721085 12.3218 0.961567 11.3619 2.2113 10.0671C4.00497 8.86459 5.20532 8.54864 7.42765 8.55726C7.8609 8.55821 8.29415 8.55917 8.74053 8.56015C9.19814 8.56262 9.65574 8.56513 10.1134 8.56767C10.5749 8.56915 11.0364 8.57051 11.4979 8.57172C12.6279 8.57521 13.7579 8.58009 14.8879 8.58618C14.8792 8.41294 14.8705 8.2397 14.8615 8.06121C14.8267 7.27369 14.8051 6.48631 14.7837 5.69842C14.7697 5.42582 14.7557 5.15321 14.7413 4.87235C14.7002 2.8544 14.7002 2.8544 15.6229 1.9117C16.501 1.50338 17.2887 1.20501 18.2447 0.978035C18.5238 0.909694 18.8029 0.841352 19.0905 0.77094C19.4872 0.681027 19.4872 0.681027 19.8919 0.589298C20.0882 0.537922 20.2844 0.486547 20.4867 0.433615C22.141 0.119346 23.8784 0.225498 25.563 0.219072ZM4.21288 12.7327C4.01645 13.6768 4.03296 14.608 4.04343 15.5658C4.04135 15.8563 4.03927 16.1467 4.03713 16.446C4.03179 17.4219 4.03602 18.3977 4.04022 19.3736C4.03841 20.0722 4.03603 20.7708 4.03313 21.4694C4.02704 23.3688 4.02941 25.2682 4.03364 27.1676C4.03601 28.3534 4.03556 29.5392 4.03432 30.7249C4.03411 30.9217 4.03391 31.1185 4.0337 31.3212C4.03327 31.721 4.03284 32.1207 4.0324 32.5205C4.02859 36.2698 4.03297 40.019 4.04014 43.7683C4.0461 46.9861 4.04507 50.2039 4.03891 53.4217C4.03177 57.1575 4.02896 60.8933 4.03306 64.6291C4.03348 65.0273 4.0339 65.4256 4.03432 65.8239C4.03452 66.0199 4.03473 66.2158 4.03494 66.4177C4.03609 67.7994 4.03408 69.181 4.03101 70.5627C4.02716 72.422 4.02981 74.2811 4.03754 76.1404C4.03931 76.8238 4.03879 77.5073 4.03585 78.1907C4.03222 79.1216 4.03676 80.0522 4.04343 80.983C4.04046 81.2553 4.03748 81.5277 4.03441 81.8082C4.05417 83.2808 4.05417 83.2808 4.78462 84.5761C5.6846 85.0773 6.18588 85.1497 7.24383 85.1513C7.58618 85.1546 7.92853 85.158 8.28125 85.1614C8.65492 85.159 9.02859 85.1566 9.41358 85.1541C9.80859 85.1562 10.2036 85.1583 10.6106 85.1604C11.6927 85.1647 12.7747 85.1637 13.8569 85.16C14.9898 85.157 16.1227 85.1598 17.2556 85.1616C19.1581 85.1638 21.0605 85.1609 22.963 85.1553C25.1619 85.1488 27.3607 85.1509 29.5597 85.1574C31.4482 85.1628 33.3368 85.1636 35.2254 85.1605C36.3531 85.1586 37.4807 85.1584 38.6084 85.1623C39.8656 85.1653 41.1225 85.1607 42.3796 85.1541C42.9401 85.1577 42.9401 85.1577 43.5119 85.1614C43.8543 85.1581 44.1966 85.1547 44.5494 85.1513C44.8465 85.1508 45.1437 85.1504 45.4499 85.1499C46.5858 84.9372 46.9326 84.6777 47.5803 83.8161C47.7754 82.8712 47.7573 81.9394 47.7453 80.981C47.7469 80.6904 47.7485 80.3997 47.7502 80.1002C47.7539 79.1236 47.7481 78.1471 47.7424 77.1705C47.7431 76.4714 47.7444 75.7724 47.7462 75.0733C47.7495 73.1727 47.7443 71.2721 47.7376 69.3714C47.7317 67.5863 47.7328 65.8012 47.7331 64.0161C47.7334 60.4792 47.7273 56.9423 47.7176 53.4054C47.7082 49.9719 47.7035 46.5383 47.7039 43.1048C47.704 42.8933 47.704 42.6817 47.704 42.4638C47.7041 42.2527 47.7041 42.0415 47.7041 41.824C47.7046 37.917 47.7006 34.0099 47.6947 30.1029C47.6927 28.7202 47.692 27.3375 47.6916 25.9548C47.691 24.0948 47.6869 22.2349 47.6802 20.3749C47.6782 19.6909 47.6774 19.0068 47.6778 18.3228C47.6781 17.3919 47.6744 16.4611 47.6695 15.5302C47.6711 15.1204 47.6711 15.1204 47.6727 14.7024C47.6705 14.4537 47.6684 14.2051 47.6661 13.9489C47.6654 13.6264 47.6654 13.6264 47.6647 13.2975C47.6133 12.6353 47.6133 12.6353 46.9131 11.8442C45.9316 11.5537 45.2917 11.5088 44.2686 11.5044C43.9295 11.5023 43.5904 11.5002 43.241 11.498C42.8693 11.4972 42.4975 11.4964 42.1145 11.4956C41.527 11.4926 41.527 11.4926 40.9275 11.4897C39.6289 11.4838 38.3303 11.4804 37.0317 11.4774C36.5844 11.4762 36.1372 11.475 35.69 11.4738C33.5896 11.4681 31.4893 11.4639 29.3889 11.4614C26.9641 11.4585 24.5395 11.4507 22.1148 11.4388C20.2404 11.4298 18.3661 11.4255 16.4916 11.4245C15.3721 11.4238 14.2527 11.4211 13.1332 11.4137C11.8848 11.4065 10.6367 11.4067 9.38825 11.4088C9.01718 11.405 8.64611 11.4012 8.26379 11.3973C7.75375 11.4004 7.75375 11.4004 7.23341 11.4035C6.93827 11.4028 6.64313 11.4021 6.33905 11.4014C5.20475 11.6114 4.85986 11.8732 4.21288 12.7327Z" fill="white"/>
<path d="M7.54883 71.3765C19.6583 71.3765 31.7679 71.3765 44.2444 71.3765C44.2444 74.8951 44.2444 78.4137 44.2444 82.039C32.1348 82.039 20.0253 82.039 7.54883 82.039C7.54883 78.5203 7.54883 75.0017 7.54883 71.3765Z" fill="#00B03B"/>
<path d="M7.54883 57.1599C19.6583 57.1599 31.7679 57.1599 44.2444 57.1599C44.2444 60.5808 44.2444 64.0017 44.2444 67.5262C32.1348 67.5262 20.0253 67.5262 7.54883 67.5262C7.54883 64.1054 7.54883 60.6845 7.54883 57.1599Z" fill="#00B03B"/>
<path d="M7.54883 42.9431C19.6583 42.9431 31.7679 42.9431 44.2444 42.9431C44.2444 46.364 44.2444 49.7849 44.2444 53.3094C32.1348 53.3094 20.0253 53.3094 7.54883 53.3094C7.54883 49.8886 7.54883 46.4677 7.54883 42.9431Z" fill="#00B03B"/>
</svg>
