<svg width="17" height="18" viewBox="0 0 17 18" fill="none" xmlns="http://www.w3.org/2000/svg">
<g clip-path="url(#clip0_1_2199)">
<path d="M4.72196 7.60007L7.09999 5.65439V12.3457L4.72196 10.4001H2.19999V7.60007H4.72196ZM1.49999 11.8001H4.22221L7.92837 14.8323C7.99088 14.8835 8.06921 14.9114 8.14999 14.9114C8.34326 14.9114 8.49999 14.7548 8.49999 14.5614V3.43863C8.49999 3.35784 8.47206 3.27953 8.42089 3.217C8.29846 3.06739 8.07796 3.04534 7.92837 3.16775L4.22221 6.20005H1.49999C1.11339 6.20005 0.799988 6.51345 0.799988 6.90005V11.1001C0.799988 11.4867 1.11339 11.8001 1.49999 11.8001ZM16.2 9C16.2 11.3044 15.1877 13.3724 13.5835 14.7835L12.5911 13.7911C13.943 12.6356 14.8 10.9179 14.8 9C14.8 7.08211 13.943 5.3644 12.5911 4.2089L13.5835 3.21645C15.1877 4.62758 16.2 6.69556 16.2 9ZM12.7 9C12.7 7.66181 12.0742 6.46984 11.0993 5.70071L10.0989 6.70109C10.8249 7.20698 11.3 8.048 11.3 9C11.3 9.952 10.8249 10.793 10.0989 11.2989L11.0993 12.2992C12.0742 11.5301 12.7 10.3381 12.7 9Z" fill="white"/>
</g>
<defs>
<clipPath id="clip0_1_2199">
<rect width="16.8" height="16.8" fill="white" transform="translate(0.100006 0.600098)"/>
</clipPath>
</defs>
</svg>
